<mxfile host="app.diagrams.net" modified="2024-06-19T14:26:32.066Z" agent="Mozilla/5.0 (Windows NT 10.0; Win64; x64) AppleWebKit/537.36 (KHTML, like Gecko) Chrome/126.0.0.0 Safari/537.36 Edg/126.0.0.0" etag="KqeVlc82wVF_-zQX5BBq" version="24.5.5" type="github">
  <diagram id="R2lEEEUBdFMjLlhIrx00" name="Page-1">
    <mxGraphModel dx="1386" dy="785" grid="1" gridSize="10" guides="1" tooltips="1" connect="1" arrows="1" fold="1" page="1" pageScale="1" pageWidth="850" pageHeight="1100" math="0" shadow="0" extFonts="Permanent Marker^https://fonts.googleapis.com/css?family=Permanent+Marker">
      <root>
        <mxCell id="0" />
        <mxCell id="1" parent="0" />
        <mxCell id="jcqtpW5KHv1Esdk2uRh_-1" value="Livros" style="shape=table;startSize=30;container=1;collapsible=1;childLayout=tableLayout;fixedRows=1;rowLines=0;fontStyle=1;align=center;resizeLast=1;" vertex="1" parent="1">
          <mxGeometry x="490" y="280" width="250" height="130" as="geometry" />
        </mxCell>
        <mxCell id="jcqtpW5KHv1Esdk2uRh_-2" value="" style="shape=partialRectangle;collapsible=0;dropTarget=0;pointerEvents=0;fillColor=none;points=[[0,0.5],[1,0.5]];portConstraint=eastwest;top=0;left=0;right=0;bottom=1;" vertex="1" parent="jcqtpW5KHv1Esdk2uRh_-1">
          <mxGeometry y="30" width="250" height="30" as="geometry" />
        </mxCell>
        <mxCell id="jcqtpW5KHv1Esdk2uRh_-3" value="PK" style="shape=partialRectangle;overflow=hidden;connectable=0;fillColor=none;top=0;left=0;bottom=0;right=0;fontStyle=1;" vertex="1" parent="jcqtpW5KHv1Esdk2uRh_-2">
          <mxGeometry width="30" height="30" as="geometry">
            <mxRectangle width="30" height="30" as="alternateBounds" />
          </mxGeometry>
        </mxCell>
        <mxCell id="jcqtpW5KHv1Esdk2uRh_-4" value="Codigo int" style="shape=partialRectangle;overflow=hidden;connectable=0;fillColor=none;top=0;left=0;bottom=0;right=0;align=left;spacingLeft=6;fontStyle=5;" vertex="1" parent="jcqtpW5KHv1Esdk2uRh_-2">
          <mxGeometry x="30" width="220" height="30" as="geometry">
            <mxRectangle width="220" height="30" as="alternateBounds" />
          </mxGeometry>
        </mxCell>
        <mxCell id="jcqtpW5KHv1Esdk2uRh_-5" value="" style="shape=partialRectangle;collapsible=0;dropTarget=0;pointerEvents=0;fillColor=none;points=[[0,0.5],[1,0.5]];portConstraint=eastwest;top=0;left=0;right=0;bottom=0;" vertex="1" parent="jcqtpW5KHv1Esdk2uRh_-1">
          <mxGeometry y="60" width="250" height="30" as="geometry" />
        </mxCell>
        <mxCell id="jcqtpW5KHv1Esdk2uRh_-6" value="" style="shape=partialRectangle;overflow=hidden;connectable=0;fillColor=none;top=0;left=0;bottom=0;right=0;" vertex="1" parent="jcqtpW5KHv1Esdk2uRh_-5">
          <mxGeometry width="30" height="30" as="geometry">
            <mxRectangle width="30" height="30" as="alternateBounds" />
          </mxGeometry>
        </mxCell>
        <mxCell id="jcqtpW5KHv1Esdk2uRh_-7" value="Titulo char(50)" style="shape=partialRectangle;overflow=hidden;connectable=0;fillColor=none;top=0;left=0;bottom=0;right=0;align=left;spacingLeft=6;" vertex="1" parent="jcqtpW5KHv1Esdk2uRh_-5">
          <mxGeometry x="30" width="220" height="30" as="geometry">
            <mxRectangle width="220" height="30" as="alternateBounds" />
          </mxGeometry>
        </mxCell>
        <mxCell id="jcqtpW5KHv1Esdk2uRh_-11" style="shape=partialRectangle;collapsible=0;dropTarget=0;pointerEvents=0;fillColor=none;points=[[0,0.5],[1,0.5]];portConstraint=eastwest;top=0;left=0;right=0;bottom=0;" vertex="1" parent="jcqtpW5KHv1Esdk2uRh_-1">
          <mxGeometry y="90" width="250" height="40" as="geometry" />
        </mxCell>
        <mxCell id="jcqtpW5KHv1Esdk2uRh_-12" style="shape=partialRectangle;overflow=hidden;connectable=0;fillColor=none;top=0;left=0;bottom=0;right=0;" vertex="1" parent="jcqtpW5KHv1Esdk2uRh_-11">
          <mxGeometry width="30" height="40" as="geometry">
            <mxRectangle width="30" height="40" as="alternateBounds" />
          </mxGeometry>
        </mxCell>
        <mxCell id="jcqtpW5KHv1Esdk2uRh_-13" value="Edicao char(50)" style="shape=partialRectangle;overflow=hidden;connectable=0;fillColor=none;top=0;left=0;bottom=0;right=0;align=left;spacingLeft=6;" vertex="1" parent="jcqtpW5KHv1Esdk2uRh_-11">
          <mxGeometry x="30" width="220" height="40" as="geometry">
            <mxRectangle width="220" height="40" as="alternateBounds" />
          </mxGeometry>
        </mxCell>
        <UserObject label="Autor" link="data:page/id,R2lEEEUBdFMjLlhIrx00" id="jcqtpW5KHv1Esdk2uRh_-14">
          <mxCell style="shape=table;startSize=30;container=1;collapsible=1;childLayout=tableLayout;fixedRows=1;rowLines=0;fontStyle=1;align=center;resizeLast=1;" vertex="1" parent="1">
            <mxGeometry x="40" y="280" width="240" height="120" as="geometry" />
          </mxCell>
        </UserObject>
        <mxCell id="jcqtpW5KHv1Esdk2uRh_-15" value="" style="shape=partialRectangle;collapsible=0;dropTarget=0;pointerEvents=0;fillColor=none;points=[[0,0.5],[1,0.5]];portConstraint=eastwest;top=0;left=0;right=0;bottom=1;" vertex="1" parent="jcqtpW5KHv1Esdk2uRh_-14">
          <mxGeometry y="30" width="240" height="30" as="geometry" />
        </mxCell>
        <mxCell id="jcqtpW5KHv1Esdk2uRh_-16" value="PK" style="shape=partialRectangle;overflow=hidden;connectable=0;fillColor=none;top=0;left=0;bottom=0;right=0;fontStyle=1;" vertex="1" parent="jcqtpW5KHv1Esdk2uRh_-15">
          <mxGeometry width="30" height="30" as="geometry">
            <mxRectangle width="30" height="30" as="alternateBounds" />
          </mxGeometry>
        </mxCell>
        <mxCell id="jcqtpW5KHv1Esdk2uRh_-17" value="Codigo int" style="shape=partialRectangle;overflow=hidden;connectable=0;fillColor=none;top=0;left=0;bottom=0;right=0;align=left;spacingLeft=6;fontStyle=5;" vertex="1" parent="jcqtpW5KHv1Esdk2uRh_-15">
          <mxGeometry x="30" width="210" height="30" as="geometry">
            <mxRectangle width="210" height="30" as="alternateBounds" />
          </mxGeometry>
        </mxCell>
        <mxCell id="jcqtpW5KHv1Esdk2uRh_-18" value="" style="shape=partialRectangle;collapsible=0;dropTarget=0;pointerEvents=0;fillColor=none;points=[[0,0.5],[1,0.5]];portConstraint=eastwest;top=0;left=0;right=0;bottom=0;" vertex="1" parent="jcqtpW5KHv1Esdk2uRh_-14">
          <mxGeometry y="60" width="240" height="30" as="geometry" />
        </mxCell>
        <mxCell id="jcqtpW5KHv1Esdk2uRh_-19" value="" style="shape=partialRectangle;overflow=hidden;connectable=0;fillColor=none;top=0;left=0;bottom=0;right=0;" vertex="1" parent="jcqtpW5KHv1Esdk2uRh_-18">
          <mxGeometry width="30" height="30" as="geometry">
            <mxRectangle width="30" height="30" as="alternateBounds" />
          </mxGeometry>
        </mxCell>
        <mxCell id="jcqtpW5KHv1Esdk2uRh_-20" value="Nome char(50)" style="shape=partialRectangle;overflow=hidden;connectable=0;fillColor=none;top=0;left=0;bottom=0;right=0;align=left;spacingLeft=6;" vertex="1" parent="jcqtpW5KHv1Esdk2uRh_-18">
          <mxGeometry x="30" width="210" height="30" as="geometry">
            <mxRectangle width="210" height="30" as="alternateBounds" />
          </mxGeometry>
        </mxCell>
        <mxCell id="jcqtpW5KHv1Esdk2uRh_-21" value="" style="shape=partialRectangle;collapsible=0;dropTarget=0;pointerEvents=0;fillColor=none;points=[[0,0.5],[1,0.5]];portConstraint=eastwest;top=0;left=0;right=0;bottom=0;" vertex="1" parent="jcqtpW5KHv1Esdk2uRh_-14">
          <mxGeometry y="90" width="240" height="30" as="geometry" />
        </mxCell>
        <mxCell id="jcqtpW5KHv1Esdk2uRh_-22" value="" style="shape=partialRectangle;overflow=hidden;connectable=0;fillColor=none;top=0;left=0;bottom=0;right=0;" vertex="1" parent="jcqtpW5KHv1Esdk2uRh_-21">
          <mxGeometry width="30" height="30" as="geometry">
            <mxRectangle width="30" height="30" as="alternateBounds" />
          </mxGeometry>
        </mxCell>
        <mxCell id="jcqtpW5KHv1Esdk2uRh_-23" value="NacionalidadeÂ char(50)" style="shape=partialRectangle;overflow=hidden;connectable=0;fillColor=none;top=0;left=0;bottom=0;right=0;align=left;spacingLeft=6;" vertex="1" parent="jcqtpW5KHv1Esdk2uRh_-21">
          <mxGeometry x="30" width="210" height="30" as="geometry">
            <mxRectangle width="210" height="30" as="alternateBounds" />
          </mxGeometry>
        </mxCell>
        <mxCell id="jcqtpW5KHv1Esdk2uRh_-24" value="Usuario" style="shape=table;startSize=30;container=1;collapsible=1;childLayout=tableLayout;fixedRows=1;rowLines=0;fontStyle=1;align=center;resizeLast=1;" vertex="1" parent="1">
          <mxGeometry x="40" y="30" width="240" height="150" as="geometry" />
        </mxCell>
        <mxCell id="jcqtpW5KHv1Esdk2uRh_-25" value="" style="shape=partialRectangle;collapsible=0;dropTarget=0;pointerEvents=0;fillColor=none;points=[[0,0.5],[1,0.5]];portConstraint=eastwest;top=0;left=0;right=0;bottom=1;" vertex="1" parent="jcqtpW5KHv1Esdk2uRh_-24">
          <mxGeometry y="30" width="240" height="30" as="geometry" />
        </mxCell>
        <mxCell id="jcqtpW5KHv1Esdk2uRh_-26" value="PK" style="shape=partialRectangle;overflow=hidden;connectable=0;fillColor=none;top=0;left=0;bottom=0;right=0;fontStyle=1;" vertex="1" parent="jcqtpW5KHv1Esdk2uRh_-25">
          <mxGeometry width="30" height="30" as="geometry">
            <mxRectangle width="30" height="30" as="alternateBounds" />
          </mxGeometry>
        </mxCell>
        <mxCell id="jcqtpW5KHv1Esdk2uRh_-27" value="Matricula_id int" style="shape=partialRectangle;overflow=hidden;connectable=0;fillColor=none;top=0;left=0;bottom=0;right=0;align=left;spacingLeft=6;fontStyle=5;" vertex="1" parent="jcqtpW5KHv1Esdk2uRh_-25">
          <mxGeometry x="30" width="210" height="30" as="geometry">
            <mxRectangle width="210" height="30" as="alternateBounds" />
          </mxGeometry>
        </mxCell>
        <mxCell id="jcqtpW5KHv1Esdk2uRh_-28" value="" style="shape=partialRectangle;collapsible=0;dropTarget=0;pointerEvents=0;fillColor=none;points=[[0,0.5],[1,0.5]];portConstraint=eastwest;top=0;left=0;right=0;bottom=0;" vertex="1" parent="jcqtpW5KHv1Esdk2uRh_-24">
          <mxGeometry y="60" width="240" height="30" as="geometry" />
        </mxCell>
        <mxCell id="jcqtpW5KHv1Esdk2uRh_-29" value="" style="shape=partialRectangle;overflow=hidden;connectable=0;fillColor=none;top=0;left=0;bottom=0;right=0;" vertex="1" parent="jcqtpW5KHv1Esdk2uRh_-28">
          <mxGeometry width="30" height="30" as="geometry">
            <mxRectangle width="30" height="30" as="alternateBounds" />
          </mxGeometry>
        </mxCell>
        <mxCell id="jcqtpW5KHv1Esdk2uRh_-30" value="Nome char(50)" style="shape=partialRectangle;overflow=hidden;connectable=0;fillColor=none;top=0;left=0;bottom=0;right=0;align=left;spacingLeft=6;" vertex="1" parent="jcqtpW5KHv1Esdk2uRh_-28">
          <mxGeometry x="30" width="210" height="30" as="geometry">
            <mxRectangle width="210" height="30" as="alternateBounds" />
          </mxGeometry>
        </mxCell>
        <mxCell id="jcqtpW5KHv1Esdk2uRh_-31" style="shape=partialRectangle;collapsible=0;dropTarget=0;pointerEvents=0;fillColor=none;points=[[0,0.5],[1,0.5]];portConstraint=eastwest;top=0;left=0;right=0;bottom=0;" vertex="1" parent="jcqtpW5KHv1Esdk2uRh_-24">
          <mxGeometry y="90" width="240" height="30" as="geometry" />
        </mxCell>
        <mxCell id="jcqtpW5KHv1Esdk2uRh_-32" style="shape=partialRectangle;overflow=hidden;connectable=0;fillColor=none;top=0;left=0;bottom=0;right=0;" vertex="1" parent="jcqtpW5KHv1Esdk2uRh_-31">
          <mxGeometry width="30" height="30" as="geometry">
            <mxRectangle width="30" height="30" as="alternateBounds" />
          </mxGeometry>
        </mxCell>
        <mxCell id="jcqtpW5KHv1Esdk2uRh_-33" value="Endereco char(50)" style="shape=partialRectangle;overflow=hidden;connectable=0;fillColor=none;top=0;left=0;bottom=0;right=0;align=left;spacingLeft=6;" vertex="1" parent="jcqtpW5KHv1Esdk2uRh_-31">
          <mxGeometry x="30" width="210" height="30" as="geometry">
            <mxRectangle width="210" height="30" as="alternateBounds" />
          </mxGeometry>
        </mxCell>
        <mxCell id="jcqtpW5KHv1Esdk2uRh_-34" style="shape=partialRectangle;collapsible=0;dropTarget=0;pointerEvents=0;fillColor=none;points=[[0,0.5],[1,0.5]];portConstraint=eastwest;top=0;left=0;right=0;bottom=0;" vertex="1" parent="jcqtpW5KHv1Esdk2uRh_-24">
          <mxGeometry y="120" width="240" height="30" as="geometry" />
        </mxCell>
        <mxCell id="jcqtpW5KHv1Esdk2uRh_-35" style="shape=partialRectangle;overflow=hidden;connectable=0;fillColor=none;top=0;left=0;bottom=0;right=0;" vertex="1" parent="jcqtpW5KHv1Esdk2uRh_-34">
          <mxGeometry width="30" height="30" as="geometry">
            <mxRectangle width="30" height="30" as="alternateBounds" />
          </mxGeometry>
        </mxCell>
        <mxCell id="jcqtpW5KHv1Esdk2uRh_-36" value="E-mail char(50)" style="shape=partialRectangle;overflow=hidden;connectable=0;fillColor=none;top=0;left=0;bottom=0;right=0;align=left;spacingLeft=6;" vertex="1" parent="jcqtpW5KHv1Esdk2uRh_-34">
          <mxGeometry x="30" width="210" height="30" as="geometry">
            <mxRectangle width="210" height="30" as="alternateBounds" />
          </mxGeometry>
        </mxCell>
        <mxCell id="jcqtpW5KHv1Esdk2uRh_-46" value="Assunto" style="shape=table;startSize=30;container=1;collapsible=1;childLayout=tableLayout;fixedRows=1;rowLines=0;fontStyle=1;align=center;resizeLast=1;" vertex="1" parent="1">
          <mxGeometry x="35" y="490" width="250" height="90" as="geometry" />
        </mxCell>
        <mxCell id="jcqtpW5KHv1Esdk2uRh_-47" value="" style="shape=partialRectangle;collapsible=0;dropTarget=0;pointerEvents=0;fillColor=none;points=[[0,0.5],[1,0.5]];portConstraint=eastwest;top=0;left=0;right=0;bottom=1;" vertex="1" parent="jcqtpW5KHv1Esdk2uRh_-46">
          <mxGeometry y="30" width="250" height="30" as="geometry" />
        </mxCell>
        <mxCell id="jcqtpW5KHv1Esdk2uRh_-48" value="PK" style="shape=partialRectangle;overflow=hidden;connectable=0;fillColor=none;top=0;left=0;bottom=0;right=0;fontStyle=1;" vertex="1" parent="jcqtpW5KHv1Esdk2uRh_-47">
          <mxGeometry width="30" height="30" as="geometry">
            <mxRectangle width="30" height="30" as="alternateBounds" />
          </mxGeometry>
        </mxCell>
        <mxCell id="jcqtpW5KHv1Esdk2uRh_-49" value="Codigo int" style="shape=partialRectangle;overflow=hidden;connectable=0;fillColor=none;top=0;left=0;bottom=0;right=0;align=left;spacingLeft=6;fontStyle=5;" vertex="1" parent="jcqtpW5KHv1Esdk2uRh_-47">
          <mxGeometry x="30" width="220" height="30" as="geometry">
            <mxRectangle width="220" height="30" as="alternateBounds" />
          </mxGeometry>
        </mxCell>
        <mxCell id="jcqtpW5KHv1Esdk2uRh_-50" value="" style="shape=partialRectangle;collapsible=0;dropTarget=0;pointerEvents=0;fillColor=none;points=[[0,0.5],[1,0.5]];portConstraint=eastwest;top=0;left=0;right=0;bottom=0;" vertex="1" parent="jcqtpW5KHv1Esdk2uRh_-46">
          <mxGeometry y="60" width="250" height="30" as="geometry" />
        </mxCell>
        <mxCell id="jcqtpW5KHv1Esdk2uRh_-51" value="" style="shape=partialRectangle;overflow=hidden;connectable=0;fillColor=none;top=0;left=0;bottom=0;right=0;" vertex="1" parent="jcqtpW5KHv1Esdk2uRh_-50">
          <mxGeometry width="30" height="30" as="geometry">
            <mxRectangle width="30" height="30" as="alternateBounds" />
          </mxGeometry>
        </mxCell>
        <mxCell id="jcqtpW5KHv1Esdk2uRh_-52" value="Nome char(50)" style="shape=partialRectangle;overflow=hidden;connectable=0;fillColor=none;top=0;left=0;bottom=0;right=0;align=left;spacingLeft=6;" vertex="1" parent="jcqtpW5KHv1Esdk2uRh_-50">
          <mxGeometry x="30" width="220" height="30" as="geometry">
            <mxRectangle width="220" height="30" as="alternateBounds" />
          </mxGeometry>
        </mxCell>
        <mxCell id="jcqtpW5KHv1Esdk2uRh_-73" value="Reservou" style="rhombus;whiteSpace=wrap;html=1;" vertex="1" parent="1">
          <mxGeometry x="410" y="125" width="80" height="80" as="geometry" />
        </mxCell>
        <mxCell id="jcqtpW5KHv1Esdk2uRh_-74" value="Dat_reserv date" style="whiteSpace=wrap;html=1;rounded=1;arcSize=50;align=center;verticalAlign=middle;strokeWidth=1;autosize=1;spacing=4;treeFolding=1;treeMoving=1;newEdgeStyle={&quot;edgeStyle&quot;:&quot;entityRelationEdgeStyle&quot;,&quot;startArrow&quot;:&quot;none&quot;,&quot;endArrow&quot;:&quot;none&quot;,&quot;segment&quot;:10,&quot;curved&quot;:1,&quot;sourcePerimeterSpacing&quot;:0,&quot;targetPerimeterSpacing&quot;:0};" vertex="1" parent="1">
          <mxGeometry x="280" y="205" width="130" height="30" as="geometry" />
        </mxCell>
        <mxCell id="jcqtpW5KHv1Esdk2uRh_-75" value="" style="edgeStyle=entityRelationEdgeStyle;startArrow=none;endArrow=none;segment=10;curved=1;sourcePerimeterSpacing=0;targetPerimeterSpacing=0;rounded=0;exitX=0;exitY=1;exitDx=0;exitDy=0;" edge="1" target="jcqtpW5KHv1Esdk2uRh_-74" parent="1" source="jcqtpW5KHv1Esdk2uRh_-73">
          <mxGeometry relative="1" as="geometry">
            <mxPoint x="290" y="272" as="sourcePoint" />
          </mxGeometry>
        </mxCell>
        <mxCell id="jcqtpW5KHv1Esdk2uRh_-76" value="" style="endArrow=none;html=1;rounded=0;entryX=0;entryY=0.5;entryDx=0;entryDy=0;exitX=1;exitY=0.5;exitDx=0;exitDy=0;endFill=0;" edge="1" parent="1" source="jcqtpW5KHv1Esdk2uRh_-34" target="jcqtpW5KHv1Esdk2uRh_-73">
          <mxGeometry relative="1" as="geometry">
            <mxPoint x="490" y="80" as="sourcePoint" />
            <mxPoint x="650" y="80" as="targetPoint" />
          </mxGeometry>
        </mxCell>
        <mxCell id="jcqtpW5KHv1Esdk2uRh_-78" value="N" style="edgeLabel;resizable=0;html=1;;align=left;verticalAlign=bottom;" connectable="0" vertex="1" parent="jcqtpW5KHv1Esdk2uRh_-76">
          <mxGeometry x="-1" relative="1" as="geometry" />
        </mxCell>
        <mxCell id="jcqtpW5KHv1Esdk2uRh_-79" value="" style="endArrow=none;html=1;rounded=0;exitX=1;exitY=1;exitDx=0;exitDy=0;entryX=0.28;entryY=0.008;entryDx=0;entryDy=0;entryPerimeter=0;endFill=0;" edge="1" parent="1" source="jcqtpW5KHv1Esdk2uRh_-73" target="jcqtpW5KHv1Esdk2uRh_-1">
          <mxGeometry relative="1" as="geometry">
            <mxPoint x="670" y="150" as="sourcePoint" />
            <mxPoint x="830" y="150" as="targetPoint" />
          </mxGeometry>
        </mxCell>
        <mxCell id="jcqtpW5KHv1Esdk2uRh_-82" value="1" style="edgeLabel;resizable=0;html=1;;align=right;verticalAlign=bottom;" connectable="0" vertex="1" parent="jcqtpW5KHv1Esdk2uRh_-79">
          <mxGeometry x="1" relative="1" as="geometry">
            <mxPoint y="-11" as="offset" />
          </mxGeometry>
        </mxCell>
        <mxCell id="jcqtpW5KHv1Esdk2uRh_-83" value="Pegou" style="rhombus;whiteSpace=wrap;html=1;" vertex="1" parent="1">
          <mxGeometry x="575" y="35" width="80" height="80" as="geometry" />
        </mxCell>
        <mxCell id="jcqtpW5KHv1Esdk2uRh_-84" value="" style="endArrow=none;html=1;rounded=0;exitX=1;exitY=0.5;exitDx=0;exitDy=0;endFill=0;" edge="1" parent="1" source="jcqtpW5KHv1Esdk2uRh_-25" target="jcqtpW5KHv1Esdk2uRh_-83">
          <mxGeometry relative="1" as="geometry">
            <mxPoint x="340" y="200" as="sourcePoint" />
            <mxPoint x="500" y="200" as="targetPoint" />
          </mxGeometry>
        </mxCell>
        <mxCell id="jcqtpW5KHv1Esdk2uRh_-86" value="1" style="edgeLabel;resizable=0;html=1;;align=left;verticalAlign=bottom;" connectable="0" vertex="1" parent="jcqtpW5KHv1Esdk2uRh_-84">
          <mxGeometry x="-1" relative="1" as="geometry" />
        </mxCell>
        <mxCell id="jcqtpW5KHv1Esdk2uRh_-87" value="" style="endArrow=none;html=1;rounded=0;exitX=0.5;exitY=1;exitDx=0;exitDy=0;entryX=0.5;entryY=0;entryDx=0;entryDy=0;endFill=0;" edge="1" parent="1" source="jcqtpW5KHv1Esdk2uRh_-83" target="jcqtpW5KHv1Esdk2uRh_-1">
          <mxGeometry relative="1" as="geometry">
            <mxPoint x="340" y="200" as="sourcePoint" />
            <mxPoint x="500" y="200" as="targetPoint" />
          </mxGeometry>
        </mxCell>
        <mxCell id="jcqtpW5KHv1Esdk2uRh_-90" value="N" style="edgeLabel;resizable=0;html=1;;align=right;verticalAlign=bottom;" connectable="0" vertex="1" parent="jcqtpW5KHv1Esdk2uRh_-87">
          <mxGeometry x="1" relative="1" as="geometry">
            <mxPoint x="15" y="-10" as="offset" />
          </mxGeometry>
        </mxCell>
        <mxCell id="jcqtpW5KHv1Esdk2uRh_-91" value="Data_emp&lt;span style=&quot;background-color: initial;&quot;&gt;&amp;nbsp;date&lt;/span&gt;" style="whiteSpace=wrap;html=1;rounded=1;arcSize=50;align=center;verticalAlign=middle;strokeWidth=1;autosize=1;spacing=4;treeFolding=1;treeMoving=1;newEdgeStyle={&quot;edgeStyle&quot;:&quot;entityRelationEdgeStyle&quot;,&quot;startArrow&quot;:&quot;none&quot;,&quot;endArrow&quot;:&quot;none&quot;,&quot;segment&quot;:10,&quot;curved&quot;:1,&quot;sourcePerimeterSpacing&quot;:0,&quot;targetPerimeterSpacing&quot;:0};" vertex="1" parent="1">
          <mxGeometry x="675" y="30" width="130" height="30" as="geometry" />
        </mxCell>
        <mxCell id="jcqtpW5KHv1Esdk2uRh_-92" value="" style="edgeStyle=entityRelationEdgeStyle;startArrow=none;endArrow=none;segment=10;curved=1;sourcePerimeterSpacing=0;targetPerimeterSpacing=0;rounded=0;exitX=1;exitY=0;exitDx=0;exitDy=0;" edge="1" target="jcqtpW5KHv1Esdk2uRh_-91" parent="1" source="jcqtpW5KHv1Esdk2uRh_-83">
          <mxGeometry relative="1" as="geometry">
            <mxPoint x="660" y="62" as="sourcePoint" />
          </mxGeometry>
        </mxCell>
        <mxCell id="jcqtpW5KHv1Esdk2uRh_-93" value="Data_dev date" style="whiteSpace=wrap;html=1;rounded=1;arcSize=50;align=center;verticalAlign=middle;strokeWidth=1;autosize=1;spacing=4;treeFolding=1;treeMoving=1;newEdgeStyle={&quot;edgeStyle&quot;:&quot;entityRelationEdgeStyle&quot;,&quot;startArrow&quot;:&quot;none&quot;,&quot;endArrow&quot;:&quot;none&quot;,&quot;segment&quot;:10,&quot;curved&quot;:1,&quot;sourcePerimeterSpacing&quot;:0,&quot;targetPerimeterSpacing&quot;:0};" vertex="1" parent="1">
          <mxGeometry x="680" y="90" width="120" height="30" as="geometry" />
        </mxCell>
        <mxCell id="jcqtpW5KHv1Esdk2uRh_-94" value="" style="edgeStyle=entityRelationEdgeStyle;startArrow=none;endArrow=none;segment=10;curved=1;sourcePerimeterSpacing=0;targetPerimeterSpacing=0;rounded=0;exitX=1;exitY=1;exitDx=0;exitDy=0;" edge="1" target="jcqtpW5KHv1Esdk2uRh_-93" parent="1" source="jcqtpW5KHv1Esdk2uRh_-83">
          <mxGeometry relative="1" as="geometry">
            <mxPoint x="660" y="132" as="sourcePoint" />
          </mxGeometry>
        </mxCell>
        <mxCell id="jcqtpW5KHv1Esdk2uRh_-95" value="Escreveu" style="rhombus;whiteSpace=wrap;html=1;" vertex="1" parent="1">
          <mxGeometry x="345" y="305" width="80" height="80" as="geometry" />
        </mxCell>
        <mxCell id="jcqtpW5KHv1Esdk2uRh_-96" value="" style="endArrow=none;html=1;rounded=0;endFill=0;" edge="1" parent="1" source="jcqtpW5KHv1Esdk2uRh_-14" target="jcqtpW5KHv1Esdk2uRh_-95">
          <mxGeometry relative="1" as="geometry">
            <mxPoint x="340" y="200" as="sourcePoint" />
            <mxPoint x="500" y="200" as="targetPoint" />
          </mxGeometry>
        </mxCell>
        <mxCell id="jcqtpW5KHv1Esdk2uRh_-98" value="N" style="edgeLabel;resizable=0;html=1;;align=left;verticalAlign=bottom;" connectable="0" vertex="1" parent="jcqtpW5KHv1Esdk2uRh_-96">
          <mxGeometry x="-1" relative="1" as="geometry" />
        </mxCell>
        <mxCell id="jcqtpW5KHv1Esdk2uRh_-104" value="" style="endArrow=none;html=1;rounded=0;exitX=1;exitY=0.5;exitDx=0;exitDy=0;endFill=0;" edge="1" parent="1" source="jcqtpW5KHv1Esdk2uRh_-95" target="jcqtpW5KHv1Esdk2uRh_-1">
          <mxGeometry relative="1" as="geometry">
            <mxPoint x="340" y="200" as="sourcePoint" />
            <mxPoint x="500" y="200" as="targetPoint" />
          </mxGeometry>
        </mxCell>
        <mxCell id="jcqtpW5KHv1Esdk2uRh_-107" value="N" style="edgeLabel;resizable=0;html=1;;align=right;verticalAlign=bottom;" connectable="0" vertex="1" parent="jcqtpW5KHv1Esdk2uRh_-104">
          <mxGeometry x="1" relative="1" as="geometry" />
        </mxCell>
        <mxCell id="jcqtpW5KHv1Esdk2uRh_-108" value="Classificado" style="rhombus;whiteSpace=wrap;html=1;" vertex="1" parent="1">
          <mxGeometry x="345" y="400" width="80" height="80" as="geometry" />
        </mxCell>
        <mxCell id="jcqtpW5KHv1Esdk2uRh_-109" value="Composto" style="rhombus;whiteSpace=wrap;html=1;" vertex="1" parent="1">
          <mxGeometry x="470" y="495" width="80" height="80" as="geometry" />
        </mxCell>
        <mxCell id="jcqtpW5KHv1Esdk2uRh_-121" value="" style="endArrow=none;html=1;rounded=0;entryX=0;entryY=1;entryDx=0;entryDy=0;endFill=0;" edge="1" parent="1" source="jcqtpW5KHv1Esdk2uRh_-46" target="jcqtpW5KHv1Esdk2uRh_-109">
          <mxGeometry relative="1" as="geometry">
            <mxPoint x="340" y="400" as="sourcePoint" />
            <mxPoint x="500" y="400" as="targetPoint" />
          </mxGeometry>
        </mxCell>
        <mxCell id="jcqtpW5KHv1Esdk2uRh_-122" value="Sub-Assunto" style="edgeLabel;resizable=0;html=1;;align=center;verticalAlign=middle;" connectable="0" vertex="1" parent="jcqtpW5KHv1Esdk2uRh_-121">
          <mxGeometry relative="1" as="geometry" />
        </mxCell>
        <mxCell id="jcqtpW5KHv1Esdk2uRh_-123" value="N" style="edgeLabel;resizable=0;html=1;;align=left;verticalAlign=bottom;" connectable="0" vertex="1" parent="jcqtpW5KHv1Esdk2uRh_-121">
          <mxGeometry x="-1" relative="1" as="geometry" />
        </mxCell>
        <mxCell id="jcqtpW5KHv1Esdk2uRh_-124" value="" style="endArrow=none;html=1;rounded=0;entryX=0;entryY=0;entryDx=0;entryDy=0;endFill=0;" edge="1" parent="1" source="jcqtpW5KHv1Esdk2uRh_-46" target="jcqtpW5KHv1Esdk2uRh_-109">
          <mxGeometry relative="1" as="geometry">
            <mxPoint x="340" y="400" as="sourcePoint" />
            <mxPoint x="500" y="400" as="targetPoint" />
          </mxGeometry>
        </mxCell>
        <mxCell id="jcqtpW5KHv1Esdk2uRh_-125" value="Assunto" style="edgeLabel;resizable=0;html=1;;align=center;verticalAlign=middle;" connectable="0" vertex="1" parent="jcqtpW5KHv1Esdk2uRh_-124">
          <mxGeometry relative="1" as="geometry" />
        </mxCell>
        <mxCell id="jcqtpW5KHv1Esdk2uRh_-126" value="N" style="edgeLabel;resizable=0;html=1;;align=left;verticalAlign=bottom;" connectable="0" vertex="1" parent="jcqtpW5KHv1Esdk2uRh_-124">
          <mxGeometry x="-1" relative="1" as="geometry" />
        </mxCell>
        <mxCell id="jcqtpW5KHv1Esdk2uRh_-130" value="" style="endArrow=none;html=1;rounded=0;exitX=1;exitY=0;exitDx=0;exitDy=0;endFill=0;" edge="1" parent="1" source="jcqtpW5KHv1Esdk2uRh_-46" target="jcqtpW5KHv1Esdk2uRh_-108">
          <mxGeometry relative="1" as="geometry">
            <mxPoint x="340" y="400" as="sourcePoint" />
            <mxPoint x="500" y="400" as="targetPoint" />
          </mxGeometry>
        </mxCell>
        <mxCell id="jcqtpW5KHv1Esdk2uRh_-132" value="N" style="edgeLabel;resizable=0;html=1;;align=left;verticalAlign=bottom;" connectable="0" vertex="1" parent="jcqtpW5KHv1Esdk2uRh_-130">
          <mxGeometry x="-1" relative="1" as="geometry">
            <mxPoint x="-5" y="-10" as="offset" />
          </mxGeometry>
        </mxCell>
        <mxCell id="jcqtpW5KHv1Esdk2uRh_-133" value="" style="endArrow=none;html=1;rounded=0;endFill=0;" edge="1" parent="1" source="jcqtpW5KHv1Esdk2uRh_-1" target="jcqtpW5KHv1Esdk2uRh_-108">
          <mxGeometry relative="1" as="geometry">
            <mxPoint x="440" y="370" as="sourcePoint" />
            <mxPoint x="500" y="400" as="targetPoint" />
          </mxGeometry>
        </mxCell>
        <mxCell id="jcqtpW5KHv1Esdk2uRh_-135" value="N" style="edgeLabel;resizable=0;html=1;;align=left;verticalAlign=bottom;" connectable="0" vertex="1" parent="jcqtpW5KHv1Esdk2uRh_-133">
          <mxGeometry x="-1" relative="1" as="geometry">
            <mxPoint x="-20" y="3" as="offset" />
          </mxGeometry>
        </mxCell>
      </root>
    </mxGraphModel>
  </diagram>
</mxfile>
